<svg version="1.0" xmlns="http://www.w3.org/2000/svg" width="1066.667" height="1066.667" viewBox="0 0 800 800"><path d="M361 24v19h92V5h-92v19zM83 32.5V52h88V13H83v19.5zm269.7 28.7c-.8.5-1.2 27.9-1.2 101-.1 98-.1 100.6-2.2 113.5-5.2 31.5-12 52-27.2 82.3-16.2 32.2-25.4 55.8-34.6 89-7.9 28.1-14.3 64.2-14.5 81.5-.1 6-.3 13.9-.5 17.5-.9 16.7-1.6 77.6-1.7 139-.1 60.9 0 68.1 1.6 74 3.6 13.6 9.4 22.5 19.2 29.2 10.5 7.1 5 6.8 115.6 6.8 77.5 0 100.5-.3 104.8-1.3 18.4-4.3 31.7-19.4 35.5-40.2 1.7-9.7-.5-179.2-3-222.5-1.7-29.3-12.5-77.6-25.5-113.9-6.7-18.8-11.7-30.3-23.5-55.1-6.2-12.9-12.9-28-15-33.5-5.9-16-11.8-40.9-14-59-1.3-11-2-69.7-2.4-188.6l-.1-20.5h-55.1c-30.3.1-55.6.4-56.2.8zm153.4 462c0 1.3.2 3.4.4 4.8.2 2.2 1.1 24.2 2 50 .2 5.2.6 30.5 1 56.2l.6 46.8H309.2l-.4-5.3c-1.1-16.6 1.2-148.8 2.7-153.5.3-.9 20.7-1.2 97.5-1.2h97l.1 2.2z"/><path d="M357.4 537.2c.3 2.4 1 9 1.6 14.8.6 5.8 1.3 11.8 1.5 13.5.6 4.5 1.3 11.1 2 19.5.4 4.1.8 8.2 1 9 .2.8.7 4.6 1 8.5.3 3.8.8 7.7 1 8.5.2.8.7 4.9 1 9 .3 4.1.8 8.6 1 10 .4 2.7 1.2 9.6 2 17.5.3 2.7.9 9 1.5 14 .5 4.9 1 9.6 1 10.2 0 1 3.7 1.3 15 1.3 14.9 0 15 0 15.1-2.3 0-1.2.2-3.1.3-4.2.2-1.1.6-5.4 1-9.5 1.2-12 2.2-22 3.1-30 .3-1.9.7-6.2 1-9.5 1.1-11.4 1.7-16 2.1-16.4.2-.2.4.7.5 2 0 1.3.2 3.3.3 4.4.4 2.9 1.8 17.5 2.1 21 .1 1.6.6 5.5.9 8.5 1.1 8.2 1.4 11.7 2.1 19.7.4 4 .8 8.1 1 9 .2 1 .4 3 .4 4.5l.1 2.8h14.5c14.3 0 14.5 0 14.6-2.3 0-1.2.2-2.9.4-3.7.1-.8.5-4.7.9-8.5.4-3.9.9-8.6 1.1-10.5.2-1.9.7-6.4 1.1-10 .3-3.6.8-7.3 1-8.2.1-.9.5-5.2.9-9.4.3-4.2.7-8 .9-8.3.2-.3.7-4.6 1.1-9.4.3-4.8.8-9.7 1-10.7.2-1 .6-4.7 1-8.2.6-6.7 1.3-13.1 2-18.8.3-1.9.7-6.2 1-9.5.3-3.3.7-7.6 1-9.5.3-1.9.7-5.6 1.1-8.3l.6-4.7H442l-.1 2.7c0 1.6-.2 3.5-.3 4.3-.2.8-.6 5.1-1 9.5s-.9 9.6-1.1 11.5c-.5 3.7-1.1 9.6-2 19.5-.3 3.3-.8 7.6-1 9.5-.3 1.9-.7 6.6-1.1 10.5-.3 3.8-.7 8.1-.9 9.5-.2 1.4-.7 5.9-1 10.1-.4 4.1-.8 8.4-1 9.5-.2 1-.4 3.9-.4 6.3-.2 7.9-1.4 3.8-2.6-8.9-.9-9.6-1.5-15.9-2-21-1.4-13.7-1.9-18.9-3.5-36-.6-6.3-1.3-13.3-1.5-15.5-.7-6.2-1.8-18.9-1.8-20.3 0-.9-2.8-1.2-10.7-1.2-10.3 0-10.6.1-10.6 2.2-.1 3.1-1.4 17.7-1.9 20.8-.2 1.4-.7 5.9-1 10-.6 8.2-1.2 14.9-2 22.5-.3 2.7-.8 7.2-1 10-.3 2.7-.7 7.2-1 10-.3 2.7-.8 8.6-1.1 13-.4 4.4-.8 9.1-.9 10.5-.2 1.4-.3 4-.4 5.9-.1 4.8-.8 3.6-1.5-2.9-1.5-13.8-2.7-24.9-3.1-30-.3-3-.8-7.5-1-10-1.1-8.7-2.5-22.8-3.1-29-.2-2.5-.6-5.9-.8-7.5-.3-1.7-.8-6.5-1.1-10.9-.4-4.3-.9-8.5-1-9.5-.2-.9-.4-2.4-.4-3.4-.1-1.5-1.3-1.7-10.7-1.7h-10.6l.6 4.2zM80 68.8c-.7.3-1 32.7-1 94.7v94.3l-5.7 2.7c-16.7 7.8-36.9 25.5-47.6 41.6-9.4 14.2-14.9 27.5-18.6 45-1.9 9.2-2 13.6-1.8 213.4l.2 204 3.2 6.8c4.1 8.5 11.6 16 20.3 20.1l6.5 3.1 89.8.3c78.6.2 90.4 0 95.1-1.3 13.7-4 25.2-16.4 28.5-30.6.7-2.9 1-72 .8-206.9l-.3-202.5-2.2-8.8c-7-28.4-20.2-50.1-41.7-68.4-6.4-5.4-19.3-13.7-26-16.6l-4.1-1.8.1-94.1c0-51.7-.2-94.3-.5-94.7-.5-.6-93.1-.9-95-.3zM211.5 535v81.5h-169v-81.2c0-69.9.2-81.3 1.4-81.5.8-.2 38.8-.3 84.5-.3h83.1V535z"/><path d="M94.9 465.7v122.6l.1 15.9 22.3-.4 22.3-.3 5.9-3c11.8-6.1 15.2-13.8 15.4-34.6.2-19.8-2.3-27.8-10.9-33.7-2.2-1.5-3.9-2.9-4-3.2 0-.3 1.3-1.2 2.9-2.1 3.2-1.8 7.6-8.7 8.7-13.4.4-1.7.8-7.6 1-13.2.6-18-3.4-27.3-14.1-32.8l-5.9-3-21.8-.3c-20.7-.4-21.8-.3-21.9 1.5zm36.5 19.3c4.1 1.5 5.8 6.1 5.8 15.9.1 10.9-.7 14.2-3.8 17.2-2.2 2.1-3.6 2.4-9.7 2.4h-7.2l-.1-17.5c0-9.6.1-17.8.3-18.3.6-1 11.7-.9 14.7.3zm4.1 59c3.2 3.2 4.3 9.3 4 22.3-.3 15.5-2.4 18-15.1 17.5l-7.9-.3-.1-20.5c0-11.3.2-20.9.4-21.4.2-.4 4-.6 8.3-.4 6.8.3 8.2.7 10.4 2.8zM642 94.5V114h80V75h-80v19.5zm-5.1 37.7c0 .7-.1 39.6-.1 86.4l-.1 85.2-4.6 2.2c-15.1 7.2-34.1 23.8-43.2 37.5-9.2 13.9-16.7 32.4-18.6 46-.4 3.3-.8 89.2-.8 191v185l2.7 5.8c3.7 7.9 7.8 12.8 14.1 17 10.5 7 7.1 6.8 98.3 6.5l81.9-.3 6-2.9c7.6-3.8 15.3-11.5 19.1-19.1l2.9-6 .3-183.5c.2-129.5 0-185.9-.8-191.5-4.8-35-26.9-66.6-58.5-83.7l-8-4.3v-172l-45.2-.3c-35.9-.2-45.3 0-45.4 1zM757.1 454c.4 1.6.3 209-.1 209.1-.3.1-34.1.2-75.3.3-74.1.1-74.7.1-74.8-1.9-.1-2.6-.1-205.7 0-207 .1-1 150-1.5 150.2-.5z"/><path d="M672.1 483.5c-9.1 2.6-15.1 8.3-18.7 18-1.8 4.6-1.9 8.4-1.9 52 0 53.2.1 54.4 7.6 62.9 6.2 7 11.4 9 23.9 9 11.7.1 16.8-1.6 22.8-7.5 6.6-6.5 8.9-14.7 9.1-32.9l.2-13-5.3-.1c-5.9-.1-14.2.2-14.5.5-.1.1-.3 6-.5 13.2-.3 10.2-.7 13.6-2 15.6-2.2 3.4-7.3 5.1-12.4 4.1-3.2-.7-4.3-1.5-5.9-4.8-1.9-3.8-2-5.9-2-46.5 0-46.3.2-47.8 5.6-50.5 5.2-2.8 11.6-1.4 14.5 3 1.6 2.4 2.3 8 2.4 19.7v4.8h20.1l-.2-10.7c-.1-5.8-.7-12.9-1.3-15.7-2.2-9-8.5-16.9-16.5-20.2-5.3-2.3-18.5-2.7-25-.9z"/></svg>